<svg width="138" height="47" viewBox="0 0 138 47" fill="none" xmlns="http://www.w3.org/2000/svg">
<g filter="url(#filter0_d_16_80)">
<path fill-rule="evenodd" clip-rule="evenodd" d="M28.208 23.2517C28.208 21.1317 27.9961 19.8605 27.1479 19.0116C26.2998 17.9516 25.0279 17.5279 22.2716 17.5279C20.7878 17.5279 19.7271 17.316 19.3034 17.316H11.6713C10.8232 17.1034 10.3987 16.6797 10.3987 15.8322C10.3987 14.7722 11.035 14.3485 12.3069 14.1359H17.607C21.4227 14.1359 21.8471 14.3485 21.8471 16.0441H27.571C27.571 12.6515 26.9347 11.3796 25.0265 10.744C23.5428 10.1077 22.0583 10.1077 16.5463 10.1077C12.9418 10.1077 11.2462 10.1077 9.5499 10.3202C5.9454 10.744 4.88538 12.4403 4.88538 16.0441C4.88538 19.0116 5.52167 20.4954 7.64171 21.1317C8.48987 21.5561 10.1862 21.5561 12.9418 21.5561H18.0301C20.362 21.5561 20.5746 21.768 20.9983 21.768C22.0583 21.768 22.6939 22.4043 22.6939 23.2517C22.6939 24.9487 21.8465 25.1606 15.2744 25.1606C13.7907 25.1606 12.0944 25.1606 11.6706 24.9487C10.8225 24.7355 10.6106 24.3124 10.6106 23.0399H4.88676V24.0992C4.88676 26.8555 5.73491 28.1281 7.85496 28.7644C9.33872 28.9763 11.2476 29.1875 15.4877 29.1875C19.5159 29.1875 20.9997 29.1875 23.3323 28.7644C26.9361 28.5532 28.208 26.8562 28.208 23.2517ZM58.9487 28.9763L48.7729 10.1077H41.1401L30.5399 28.9763H36.9L38.8082 25.5837H50.8922L52.8004 28.9763H58.9487ZM48.9847 21.768H40.9283L44.7446 14.1359L48.9847 21.768Z" fill="#0C0E0F"/>
<path fill-rule="evenodd" clip-rule="evenodd" d="M60.645 19.6472C60.645 9.25949 69.1252 0.779297 79.5136 0.779297C87.7812 0.779297 94.777 6.29129 97.3222 13.7115C99.8659 6.29129 106.862 0.779297 115.131 0.779297C125.519 0.779297 134 9.25949 134 19.6472C134 30.0356 125.519 38.3046 115.131 38.3046C106.863 38.3046 99.8659 33.0031 97.3222 25.5829C94.777 33.0031 87.7819 38.3046 79.5136 38.3046C69.1252 38.3046 60.645 30.0356 60.645 19.6472Z" fill="#305DA2"/>
<path fill-rule="evenodd" clip-rule="evenodd" d="M91.1745 23.2517C91.1745 21.1317 90.7501 19.8605 90.1138 19.0116C89.0545 17.9516 87.9938 17.5279 85.2388 17.5279C83.7551 17.5279 82.4825 17.316 82.2692 17.316H74.6379C73.7898 17.1034 73.3653 16.6797 73.3653 15.8322C73.3653 14.7722 73.7898 14.3485 75.2742 14.1359H80.3624C84.1781 14.1359 84.8144 14.3485 84.8144 16.0441H90.3257C90.3257 12.6515 89.6908 11.3796 87.7819 10.744C86.5093 10.1077 85.0256 10.1077 79.5143 10.1077C75.9098 10.1077 74.2142 10.1077 72.306 10.3202C68.9134 10.744 67.6415 12.4403 67.6415 16.0441C67.6415 19.0116 68.4896 20.4954 70.3971 21.1317C71.4578 21.5561 72.9423 21.5561 75.6986 21.5561H80.9987C83.3307 21.5561 83.5425 21.768 83.7551 21.768C85.0263 21.768 85.4507 22.4043 85.4507 23.2517C85.4507 24.9487 84.8144 25.1606 78.0305 25.1606C76.5468 25.1606 75.0623 25.1606 74.426 24.9487C73.5779 24.7355 73.3653 24.3124 73.3653 23.0399H67.8533C67.6415 23.4643 67.6415 23.888 67.6415 24.0992C67.6415 26.8555 68.7015 28.1281 70.8216 28.7644C72.0941 28.9763 74.0009 29.1875 78.2417 29.1875C82.2692 29.1875 83.9663 29.1875 86.2982 28.7644C89.902 28.5532 91.1745 26.8562 91.1745 23.2517ZM129.335 28.9763L119.16 10.1077H111.315L100.927 28.9763H107.286L109.195 25.5837H121.278L123.187 28.9763H129.335Z" fill="white"/>
<path fill-rule="evenodd" clip-rule="evenodd" d="M119.16 21.7678H111.103L115.131 14.135L119.16 21.7678Z" fill="#305DA2"/>
</g>
<defs>
<filter id="filter0_d_16_80" x="0.885376" y="0.779297" width="137.115" height="45.5254" filterUnits="userSpaceOnUse" color-interpolation-filters="sRGB">
<feFlood flood-opacity="0" result="BackgroundImageFix"/>
<feColorMatrix in="SourceAlpha" type="matrix" values="0 0 0 0 0 0 0 0 0 0 0 0 0 0 0 0 0 0 127 0" result="hardAlpha"/>
<feOffset dy="4"/>
<feGaussianBlur stdDeviation="2"/>
<feComposite in2="hardAlpha" operator="out"/>
<feColorMatrix type="matrix" values="0 0 0 0 0 0 0 0 0 0 0 0 0 0 0 0 0 0 0.25 0"/>
<feBlend mode="normal" in2="BackgroundImageFix" result="effect1_dropShadow_16_80"/>
<feBlend mode="normal" in="SourceGraphic" in2="effect1_dropShadow_16_80" result="shape"/>
</filter>
</defs>
</svg>
